<?xml version="1.0" standalone="no"?>
<!DOCTYPE svg PUBLIC "-//W3C//DTD SVG 20010904//EN"
 "http://www.w3.org/TR/2001/REC-SVG-20010904/DTD/svg10.dtd">
<svg version="1.0" xmlns="http://www.w3.org/2000/svg"
 width="826.000000pt" height="826.000000pt" viewBox="0 0 826.000000 826.000000"
 preserveAspectRatio="xMidYMid meet">
<metadata>
Created by potrace 1.14, written by Peter Selinger 2001-2017
</metadata>
<g transform="translate(0.000000,826.000000) scale(0.100000,-0.100000)"
fill="#000000" stroke="none">
<path d="M3855 7208 c-27 -4 -70 -10 -95 -14 -151 -21 -603 -159 -795 -243
-11 -5 -69 -28 -130 -51 -254 -99 -1161 -478 -1390 -580 -22 -10 -125 -56
-230 -103 -555 -247 -873 -426 -1026 -577 -73 -71 -78 -79 -102 -160 -14 -47
-29 -105 -32 -130 -3 -25 -8 -63 -11 -85 -3 -22 -7 -51 -9 -65 -3 -23 -10
-108 -21 -260 -6 -97 -7 -1109 0 -1300 9 -264 25 -495 42 -615 30 -210 49
-262 138 -374 94 -118 220 -217 455 -358 109 -66 529 -284 646 -336 130 -57
344 -151 370 -162 55 -25 340 -137 365 -145 14 -5 63 -22 110 -39 47 -18 119
-43 160 -58 41 -14 79 -30 84 -34 6 -5 17 -9 25 -9 8 0 56 -16 106 -35 106
-40 444 -163 665 -242 246 -87 447 -147 539 -159 25 -3 49 -8 52 -10 20 -11
135 -19 284 -18 157 1 192 4 352 38 81 17 328 96 408 131 17 7 136 52 265 100
129 48 244 91 255 96 11 5 52 20 90 33 99 35 125 44 455 168 1012 378 1625
657 1985 902 99 67 253 212 279 263 9 17 18 49 21 70 3 21 8 49 10 63 9 51 21
165 31 295 3 44 7 100 9 125 2 25 7 106 10 180 4 74 8 162 10 195 24 374 23
1367 0 1590 -2 22 -7 69 -10 104 -4 35 -10 73 -15 85 -9 24 -10 30 -10 49 0
28 -66 111 -129 162 -64 51 -262 175 -280 175 -5 0 -11 3 -13 8 -8 19 -283
155 -458 227 -36 14 -78 32 -95 39 -16 7 -73 30 -125 51 -52 21 -108 43 -125
51 -16 7 -154 59 -305 117 -235 89 -394 148 -790 292 -102 37 -222 79 -530
185 -157 54 -379 132 -494 174 -354 130 -452 159 -646 193 -48 8 -305 9 -355
1z m365 -252 c81 -10 218 -38 310 -66 63 -19 70 -23 70 -46 0 -21 -4 -25 -17
-19 -75 29 -232 68 -328 82 -110 15 -436 7 -505 -12 -8 -2 -30 -7 -47 -10
-140 -23 -452 -121 -635 -199 -49 -21 -68 -20 -68 2 0 21 22 32 210 100 286
105 461 149 670 168 36 4 66 7 67 8 6 5 215 -2 273 -8z m815 -253 c77 -28 188
-68 248 -88 59 -21 107 -40 107 -44 0 -3 -4 -12 -9 -20 -7 -11 -37 -4 -162 39
-280 97 -494 180 -506 197 -30 40 -12 41 85 4 53 -21 160 -61 237 -88z m-2102
-52 c-10 -17 -24 -31 -31 -31 -8 0 -28 -7 -45 -15 -18 -8 -106 -43 -197 -79
-91 -35 -219 -86 -285 -113 -66 -28 -194 -81 -285 -118 -91 -37 -178 -73 -195
-80 -16 -8 -100 -43 -185 -80 -85 -36 -164 -70 -175 -75 -11 -5 -42 -19 -70
-31 -27 -12 -84 -37 -125 -56 -41 -19 -115 -53 -165 -76 -115 -52 -489 -242
-524 -265 -14 -10 -42 -26 -61 -36 -70 -36 -185 -131 -207 -171 -27 -50 -52
-170 -69 -330 -27 -268 -27 -1210 1 -1700 7 -115 16 -243 21 -280 2 -22 7 -58
10 -80 9 -72 16 -99 41 -148 81 -162 349 -358 773 -565 163 -79 398 -187 470
-214 14 -5 38 -15 55 -22 16 -7 62 -26 100 -41 39 -15 84 -34 100 -41 111 -46
561 -212 875 -321 258 -90 600 -210 655 -231 46 -16 228 -70 259 -76 284 -53
480 -56 676 -10 14 3 32 6 40 8 52 8 143 39 700 239 547 196 1109 405 1215
452 17 7 48 20 70 28 46 16 383 157 459 192 28 13 103 46 166 75 456 207 799
423 878 553 35 56 46 177 67 699 17 446 23 1216 11 1497 -13 301 -17 317 -103
399 -36 34 -72 62 -79 62 -7 0 -14 3 -16 8 -5 11 -129 83 -253 145 -128 64
-307 143 -490 217 -71 29 -143 58 -160 65 -45 20 -226 88 -455 171 -113 41
-212 77 -220 81 -8 3 -19 7 -25 9 -5 1 -82 28 -170 59 -88 31 -233 82 -322
113 -150 51 -163 57 -163 80 0 15 5 22 13 19 6 -3 55 -20 107 -37 52 -17 104
-35 115 -40 11 -5 126 -45 255 -90 242 -84 302 -106 645 -233 848 -316 1317
-561 1354 -706 5 -20 12 -56 15 -81 26 -198 27 -1212 1 -1820 -8 -190 -16
-337 -20 -380 -2 -25 -7 -74 -10 -110 -10 -103 -22 -135 -72 -190 -149 -165
-466 -349 -1038 -600 -27 -12 -63 -28 -80 -35 -52 -24 -109 -48 -140 -60 -16
-7 -124 -50 -240 -97 -115 -47 -273 -109 -350 -137 -77 -29 -149 -56 -160 -62
-11 -5 -83 -31 -160 -59 -77 -28 -156 -57 -175 -65 -28 -11 -366 -133 -655
-235 -27 -10 -115 -41 -195 -70 -216 -77 -331 -111 -430 -125 -25 -3 -56 -8
-70 -10 -40 -7 -271 -8 -317 -1 -24 3 -62 9 -85 12 -86 11 -234 47 -332 79
-137 46 -321 111 -332 117 -5 3 -40 15 -79 27 -38 13 -79 26 -90 31 -11 5 -47
18 -80 29 -88 29 -496 172 -525 184 -14 6 -29 11 -35 13 -5 2 -53 19 -105 39
-52 20 -115 43 -140 51 -139 50 -568 225 -708 290 -41 19 -76 34 -78 34 -2 0
-79 37 -171 81 -411 200 -671 381 -781 541 -39 57 -57 105 -66 176 -3 28 -8
67 -11 85 -7 53 -18 220 -30 442 -10 199 -19 570 -18 825 0 505 19 811 60 995
19 87 31 111 80 156 185 175 1033 575 2183 1030 124 49 234 93 245 98 44 20
150 59 153 56 1 -1 -5 -16 -15 -34z"/>
</g>
</svg>
